<svg width="400" height="400" viewBox="0 0 400 400" fill="none" xmlns="http://www.w3.org/2000/svg">
<path d="M200 0C89.6 0 0 89.6 0 200C0 310.4 89.6 400 200 400C310.4 400 400 310.4 400 200C400 89.6 310.4 0 200 0ZM190.561 16.5817C190.674 16.5759 190.789 16.5871 190.901 16.5817L191.752 30.1446C180.216 30.6945 168.989 32.3768 158.163 35.1191L161.522 48.3419C133.107 55.5391 107.799 70.5028 87.9677 90.8589L78.2313 81.3351C70.3125 89.459 63.2328 98.3829 57.0578 107.951L45.6633 100.425C76.7839 52.307 129.794 19.6653 190.561 16.5817ZM209.099 16.5817C270.008 19.5612 323.158 52.2179 354.337 100.425L342.942 107.951C336.781 98.407 329.708 89.4845 321.811 81.3776L312.075 90.8589C292.241 70.4919 266.902 55.5416 238.478 48.3419L241.837 35.1191C231.011 32.3768 219.784 30.6945 208.248 30.1446L209.099 16.5817ZM200 76.5306C205.782 76.5174 211.565 76.8708 216.327 77.5511L208.886 139.456C224.526 141.736 238.238 149.922 247.704 161.692L297.364 124.447C303.396 131.962 310.234 143.75 313.818 152.679L256.76 177.083C259.628 184.169 261.225 191.89 261.225 200C261.225 207.813 259.772 215.279 257.1 222.151L313.691 246.344C310.199 255.325 303.432 267.092 297.492 274.66L248.172 237.755C238.718 249.795 224.849 258.202 209.014 260.544L216.327 321.429C206.803 322.895 193.197 322.874 183.673 321.514L190.986 260.544C175.14 258.2 161.282 249.766 151.828 237.713L102.636 274.617C96.604 267.103 89.7656 255.314 86.182 246.386L142.9 222.109C140.237 215.247 138.776 207.799 138.776 200C138.776 191.876 140.362 184.136 143.24 177.041L86.3095 152.721C89.8013 143.74 96.5683 131.972 102.509 124.405L152.296 161.692C161.762 149.922 175.474 141.736 191.114 139.456L183.673 77.6361C188.435 76.9028 194.218 76.5439 200 76.5306ZM36.5646 116.157L48.8095 122.194C43.645 132.206 39.4225 142.777 36.3095 153.827L49.4048 157.526C45.5978 171.036 43.5374 185.278 43.5374 200C43.5374 214.737 45.5906 228.995 49.4048 242.517L36.3095 246.216C39.4204 257.248 43.6514 267.809 48.8095 277.806L36.5646 283.844C23.6325 258.703 16.3265 230.201 16.3265 200C16.3265 169.799 23.6325 141.297 36.5646 116.157ZM363.435 116.157C376.368 141.297 383.673 169.799 383.673 200C383.673 230.201 376.368 258.703 363.435 283.844L351.191 277.806C356.351 267.806 360.579 257.251 363.691 246.216L350.595 242.517C354.409 228.995 356.463 214.737 356.463 200C356.463 185.278 354.402 171.036 350.595 157.526L363.691 153.827C360.578 142.78 356.353 132.204 351.191 122.194L363.435 116.157ZM57.0578 292.049C63.2352 301.617 70.3121 310.541 78.2313 318.665L87.9677 309.141C107.799 329.497 133.107 344.461 161.522 351.658L158.163 364.881C168.989 367.623 180.216 369.306 191.752 369.855L190.901 383.418C129.992 380.439 76.8415 347.782 45.6633 299.575L57.0578 292.049ZM342.985 292.049L354.337 299.575C323.158 347.782 270.008 380.439 209.099 383.418L208.248 369.855C219.784 369.306 231.011 367.623 241.837 364.881L238.478 351.658C266.902 344.458 292.241 329.508 312.075 309.141L321.811 318.622C329.718 310.505 336.816 301.606 342.985 292.049Z" fill="black" fill-opacity="0.9"/>
</svg>
