<svg width="400" height="409" viewBox="0 0 400 409" fill="none" xmlns="http://www.w3.org/2000/svg">
<path d="M0.0964118 199.262C2.55665 134.038 35.6116 73.8796 96.0387 34.1269C96.2171 34.1938 97.7825 33.6237 97.0674 34.9772C92.2807 39.4154 6.224 141.073 85.4367 221.314C85.4367 221.314 127.056 261.325 159.329 223.36C159.329 223.36 191.175 182.133 158.926 119.636C158.926 119.636 150.763 99.2291 121.353 86.5711L145.039 60.4382C145.039 60.4382 165.054 69.026 180.552 92.3182C180.552 92.3182 181.379 67.7952 162.593 41.6637L199.316 0L235.669 41.272C235.669 41.272 218.952 64.9559 217.721 92.7098C217.721 92.7098 229.138 73.9242 253.65 60.4396L276.909 86.5725C276.909 86.5725 254.544 93.942 239.56 119.37C226.678 142.929 216.76 193.316 240.14 224.223C240.14 224.223 266.307 261.326 312.333 222.033C312.333 222.033 396.96 146.206 303.655 36.5774C303.655 36.5774 298.556 32.0709 304.281 34.52C345.521 64.5446 394.901 104.14 400 202.955C397.987 322.783 317.743 408.324 200.569 408.324C85.8409 408.323 -3.34653 312.583 0.0964118 199.262Z" fill="#F0F0F0" fill-opacity="0.9"/>
</svg>
